# xmcd
#
# Track frame offsets: 
#        150
#        18503
#        34055
#        57528
#        81572
#        101541
#        118138
#        133426
#        146122
#        158588
#        172942
#        187937
#        201852
#        215363
#
# Disc length: 3280 seconds
#
# Revision: 0
# Processed by: cddbd v1.5.2PL0 Copyright (c) Steve Scherf et al.
# Submitted via: ExactAudioCopy v1.3
#
DISCID=cd0cce0e
DTITLE=Eric Lindell - Matters Of The Heart
DYEAR=2016
DGENRE=Blues
TTITLE0=The Good Times
TTITLE1=Since June
TTITLE2=She Thinks I Still Care
TTITLE3=Indian Summer
TTITLE4=Here In Frisco
TTITLE5=California
TTITLE6=I Lost You
TTITLE7=Couldn't Leave You If I Tried
TTITLE8=Wrong Too Long
TTITLE9=The Sun And The Sea
TTITLE10=You Look So Good In Love
TTITLE11=Sweet Beautiful Thing
TTITLE12=Take Me Back
TTITLE13=Bayou Country (Live)
EXTD=
EXTT0=
EXTT1=
EXTT2=
EXTT3=
EXTT4=
EXTT5=
EXTT6=
EXTT7=
EXTT8=
EXTT9=
EXTT10=
EXTT11=
EXTT12=
EXTT13=
PLAYORDER=
